{"glyphs":{":":{"x_min":0,"x_max":250,"ha":250,"o":""},"$":{"x_min":0,"x_max":580,"ha":580,"o":"m 245 -6 q 184 0 135 24 q 85 48 49 86 l 76 126 q 80 132 86 136 q 92 139 99 139 q 108 139 120 130 q 132 120 150 108 q 168 96 192 84 q 216 72 250 68 l 268 334 q 234 344 200 358 q 166 371 139 392 q 112 414 96 446 q 80 478 80 526 q 80 563 94 598 q 108 632 136 660 q 164 686 204 704 q 244 721 295 723 l 300 795 q 300 804 307 812 q 314 820 325 820 l 358 820 l 351 720 q 404 714 442 694 q 480 673 510 644 l 488 611 q 478 596 465 596 q 458 596 448 602 q 438 608 423 617 q 409 625 390 633 q 370 642 346 645 l 330 403 q 366 392 400 379 q 436 366 464 346 q 492 325 509 294 q 526 264 526 218 q 526 172 511 133 q 496 94 467 64 q 438 34 397 15 q 355 -4 302 -7 l 296 -95 q 295 -104 288 -112 q 281 -119 270 -119 l 238 -119 z m 442 204 q 442 228 432 246 q 423 264 407 278 q 391 290 370 300 q 348 310 324 318 l 306 68 q 340 72 364 83 q 390 94 407 112 q 424 129 433 152 q 442 176 442 204 z m 164 536 q 164 512 172 494 q 181 476 196 462 q 211 449 231 439 q 251 429 274 421 l 290 646 q 257 644 233 634 q 210 624 194 608 q 179 594 172 575 q 164 556 164 536 z"},"?":{"x_min":0,"x_max":448,"ha":448,"o":"m 40 652 q 56 667 75 680 q 94 693 116 703 q 138 713 164 719 q 190 724 220 724 q 259 724 293 713 q 326 702 351 680 q 376 660 390 630 q 404 600 404 562 q 404 524 392 496 q 381 469 364 448 q 346 428 326 412 q 306 397 288 384 q 270 370 257 356 q 244 343 242 326 l 234 250 l 172 250 l 166 333 q 164 356 175 372 q 186 389 202 404 q 220 418 240 433 q 260 447 278 464 q 296 482 308 504 q 320 526 320 558 q 320 579 312 596 q 303 614 288 626 q 274 638 254 645 q 234 652 212 652 q 182 652 160 644 q 138 636 123 628 q 108 618 99 611 q 90 604 84 604 q 71 604 64 615 z m 138 55 q 138 68 143 80 q 148 91 156 100 q 164 108 176 113 q 187 118 200 118 q 213 118 224 113 q 236 108 244 100 q 253 91 258 80 q 263 68 263 55 q 263 42 258 30 q 253 19 244 10 q 236 2 224 -3 q 213 -8 200 -8 q 187 -8 176 -3 q 164 2 156 10 q 148 19 143 30 q 138 42 138 55 z"},"<":{"x_min":0,"x_max":580,"ha":580,"o":"m 81 355 l 468 556 l 468 492 q 468 484 464 477 q 460 471 450 466 l 225 352 q 215 346 204 343 q 192 339 180 336 q 192 334 204 330 q 215 326 225 320 l 450 207 q 460 202 464 196 q 468 189 468 181 l 468 117 l 81 318 z"},"'":{"x_min":0,"x_max":204,"ha":204,"o":"m 141 716 l 141 572 l 133 494 q 130 478 124 469 q 117 460 102 460 q 88 460 81 469 q 74 478 72 494 l 64 572 l 64 716 z"},"=":{"x_min":0,"x_max":580,"ha":580,"o":"m 75 287 l 505 287 l 505 220 l 75 220 z m 75 454 l 505 454 l 505 387 l 75 387 z"},"a":{"x_min":0,"x_max":497,"ha":497,"o":"m 392 0 q 380 0 372 4 q 366 8 362 21 l 352 68 q 332 50 312 36 q 293 22 272 12 q 252 2 228 -3 q 204 -8 175 -8 q 146 -8 120 0 q 94 8 74 25 q 55 42 44 67 q 32 92 32 126 q 32 156 49 184 q 66 212 102 234 q 140 255 199 269 q 258 282 345 284 l 345 324 q 345 383 320 413 q 294 444 245 444 q 212 444 190 435 q 168 427 151 417 q 135 406 123 398 q 112 390 100 390 q 91 390 84 395 q 78 400 74 406 l 58 435 q 100 476 148 496 q 196 516 256 516 q 298 516 331 502 q 364 488 386 462 q 409 438 420 402 q 432 366 432 324 l 432 0 z m 202 54 q 225 54 244 59 q 264 64 281 73 q 298 82 314 94 q 330 107 345 123 l 345 228 q 284 226 240 218 q 197 210 170 198 q 142 186 130 168 q 118 152 118 130 q 118 110 124 96 q 131 82 142 72 q 154 63 169 59 q 184 54 202 54 z"},"L":{"x_min":0,"x_max":514,"ha":514,"o":"m 188 82 l 498 82 l 498 0 l 92 0 l 92 716 l 188 716 z"},"3":{"x_min":0,"x_max":580,"ha":580,"o":"m 299 724 q 344 724 383 712 q 422 698 449 674 q 477 650 492 616 q 508 582 508 541 q 508 507 499 480 q 490 454 474 433 q 458 413 435 399 q 412 385 384 376 q 454 358 489 314 q 524 271 524 206 q 524 156 505 116 q 486 77 454 49 q 422 22 378 7 q 335 -8 286 -8 q 228 -8 188 6 q 148 20 120 46 q 92 70 74 105 q 56 139 43 179 l 82 195 q 96 202 111 198 q 125 196 132 182 q 138 168 148 148 q 158 129 174 111 q 192 93 218 80 q 244 68 284 68 q 322 68 350 80 q 378 92 397 112 q 416 132 426 156 q 435 180 435 203 q 435 232 428 256 q 420 280 400 298 q 379 315 343 325 q 308 335 252 335 l 252 400 q 298 400 330 410 q 362 419 382 436 q 402 452 412 475 q 421 498 421 526 q 421 557 411 580 q 402 603 384 618 q 368 633 344 640 q 321 648 294 648 q 267 648 244 640 q 220 632 203 618 q 185 604 173 584 q 161 564 156 541 q 150 524 140 518 q 130 512 112 514 l 65 522 q 72 572 92 609 q 112 647 143 672 q 174 698 213 711 q 253 724 299 724 z"},";":{"x_min":0,"x_max":262,"ha":262,"o":""},"J":{"x_min":0,"x_max":422,"ha":422,"o":"m 338 248 q 338 188 324 140 q 309 92 280 60 q 252 27 210 10 q 168 -8 113 -8 q 64 -8 12 6 l 17 63 q 18 72 23 77 q 28 82 40 82 q 48 82 63 78 q 78 73 103 73 q 136 73 162 83 q 188 93 206 114 q 223 135 232 168 q 242 200 242 246 l 242 716 l 338 716 z"},"V":{"x_min":0,"x_max":677,"ha":677,"o":"m 3 716 l 80 716 q 94 716 102 710 q 110 704 114 694 l 316 188 q 322 171 328 151 q 334 131 340 110 q 344 131 350 151 q 356 171 362 188 l 564 694 q 566 702 575 709 q 584 716 596 716 l 674 716 l 382 0 l 295 0 z"},"\"":{"x_min":0,"x_max":370,"ha":370,"o":""},"7":{"x_min":0,"x_max":580,"ha":580,"o":"m 540 716 l 540 676 q 540 660 537 648 q 533 638 530 630 l 232 32 q 226 18 214 9 q 203 0 184 0 l 120 0 l 421 591 q 428 604 434 614 q 441 624 450 634 l 76 634 q 67 634 60 641 q 54 648 54 656 l 54 716 z"},"S":{"x_min":0,"x_max":542,"ha":542,"o":"m 458 604 q 454 597 448 593 q 443 590 436 590 q 427 590 416 598 q 404 606 387 617 q 370 627 345 636 q 321 644 286 644 q 254 644 229 635 q 204 626 188 612 q 171 596 162 576 q 154 556 154 532 q 154 502 169 483 q 184 463 208 449 q 232 435 263 425 q 294 414 326 404 q 358 392 389 379 q 420 365 444 344 q 468 323 483 292 q 498 262 498 218 q 498 170 482 129 q 466 88 435 58 q 404 27 359 10 q 314 -8 258 -8 q 188 -8 130 17 q 74 42 33 86 l 61 132 q 65 137 71 141 q 76 144 84 144 q 90 144 98 139 q 106 134 117 126 q 128 118 141 108 q 154 99 172 91 q 189 83 211 78 q 233 72 260 72 q 295 72 322 82 q 349 92 368 109 q 386 126 396 150 q 406 174 406 204 q 406 236 392 257 q 377 278 353 292 q 329 306 298 315 q 267 325 235 335 q 203 346 172 359 q 141 372 117 394 q 93 416 78 448 q 64 480 64 528 q 64 566 78 601 q 93 636 121 664 q 150 692 191 708 q 232 724 286 724 q 346 724 395 706 q 444 686 482 650 z"},"}":{"x_min":0,"x_max":301,"ha":301,"o":"m 199 212 q 199 188 203 163 q 207 138 212 114 q 216 89 220 64 q 224 40 224 14 q 224 -21 214 -50 q 204 -79 183 -100 q 162 -121 131 -133 q 100 -144 60 -144 l 33 -144 l 33 -104 q 33 -94 40 -90 q 48 -86 53 -86 l 63 -86 q 102 -86 124 -60 q 146 -36 146 8 q 146 36 142 62 q 139 88 134 113 q 130 138 126 162 q 123 186 123 212 q 123 230 128 246 q 134 262 144 275 q 154 288 168 297 q 182 306 198 311 q 182 316 168 325 q 154 334 144 347 q 134 360 128 376 q 123 392 123 411 q 123 436 126 460 q 130 485 134 510 q 139 534 142 560 q 146 586 146 614 q 146 658 124 683 q 102 708 63 708 l 53 708 q 48 708 40 712 q 33 717 33 727 l 33 766 l 60 766 q 100 766 131 755 q 162 744 183 722 q 204 702 214 672 q 224 644 224 609 q 224 583 220 558 q 216 533 212 508 q 207 484 203 460 q 199 435 199 410 q 199 378 216 358 q 234 338 267 338 l 267 284 q 234 284 216 264 q 199 244 199 212 z"},"Z":{"x_min":0,"x_max":602,"ha":602,"o":"m 570 716 l 570 680 q 570 664 560 648 l 154 79 l 564 79 l 564 0 l 26 0 l 26 38 q 26 46 29 53 q 32 60 36 66 l 442 638 l 46 638 l 46 716 z"},"x":{"x_min":0,"x_max":498,"ha":498,"o":"m 189 260 l 18 506 l 104 506 q 115 506 120 503 q 125 500 129 493 l 253 303 q 258 317 266 331 l 375 491 q 380 498 385 502 q 390 506 398 506 l 480 506 l 309 264 l 486 0 l 401 0 q 390 0 384 6 q 378 12 374 18 l 246 217 q 242 202 236 191 l 118 18 q 112 12 107 6 q 101 0 91 0 l 12 0 z"},")":{"x_min":0,"x_max":267,"ha":267,"o":"m 144 314 q 144 422 117 522 q 90 624 38 714 q 34 722 32 728 q 32 734 33 738 q 34 742 38 745 q 41 748 45 751 l 84 776 q 122 718 148 661 q 174 604 191 548 q 207 491 214 433 q 222 375 222 314 q 222 254 214 196 q 207 138 191 81 q 174 24 148 -32 q 122 -89 84 -146 l 45 -122 q 41 -120 38 -117 q 34 -114 33 -109 q 32 -105 32 -99 q 34 -93 38 -86 q 90 6 117 106 q 144 208 144 314 z"},"&":{"x_min":0,"x_max":712,"ha":712,"o":"m 334 724 q 373 724 406 712 q 438 699 462 678 q 485 657 499 629 q 512 602 514 572 l 459 560 q 442 556 434 576 q 431 589 423 603 q 416 617 403 628 q 391 640 374 648 q 356 655 334 655 q 308 655 288 647 q 268 639 254 625 q 240 610 232 591 q 224 572 224 550 q 224 532 228 516 q 232 500 241 484 q 250 467 264 450 q 277 433 296 414 l 502 204 q 521 238 532 275 q 544 312 548 348 q 548 358 554 364 q 558 369 568 369 l 622 369 q 622 312 604 256 q 586 201 554 152 l 704 0 l 617 0 q 602 0 594 4 q 584 7 574 18 l 502 90 q 454 45 393 18 q 332 -8 258 -8 q 218 -8 180 6 q 142 19 112 45 q 81 70 62 108 q 44 144 44 191 q 44 226 56 257 q 68 288 88 315 q 109 342 138 362 q 166 384 200 398 q 170 437 155 474 q 141 510 141 549 q 141 586 154 618 q 168 650 192 673 q 218 697 253 711 q 289 724 334 724 z m 274 64 q 330 64 374 85 q 419 106 453 140 l 242 353 q 188 324 162 285 q 135 245 135 198 q 135 166 147 141 q 159 116 178 99 q 198 82 223 73 q 248 64 274 64 z"},"_":{"x_min":0,"x_max":459,"ha":459,"o":"m 426 -82 l 426 -142 l 32 -142 l 32 -82 z"},"v":{"x_min":0,"x_max":516,"ha":516,"o":"m 12 506 l 84 506 q 95 506 102 501 q 109 496 112 488 l 240 162 q 246 144 250 126 q 255 108 259 91 q 263 108 268 126 q 272 144 278 162 l 408 488 q 412 496 418 501 q 426 506 435 506 l 504 506 l 298 0 l 218 0 z"},"O":{"x_min":0,"x_max":800,"ha":800,"o":"m 754 358 q 754 278 728 210 q 702 143 656 94 q 610 46 544 19 q 479 -8 400 -8 q 321 -8 256 19 q 191 46 144 94 q 98 143 72 210 q 47 278 47 358 q 47 438 72 506 q 98 573 144 622 q 191 670 256 698 q 321 724 400 724 q 479 724 544 698 q 610 670 656 622 q 702 573 728 506 q 754 438 754 358 z m 654 358 q 654 424 636 476 q 618 529 585 565 q 552 602 505 621 q 458 640 400 640 q 342 640 296 621 q 248 602 215 565 q 182 529 164 476 q 146 424 146 358 q 146 292 164 240 q 182 188 215 151 q 248 115 296 96 q 342 76 400 76 q 458 76 505 96 q 552 115 585 151 q 618 188 636 240 q 654 292 654 358 z"},"(":{"x_min":0,"x_max":267,"ha":267,"o":"m 122 314 q 122 208 150 106 q 177 6 230 -86 q 238 -101 234 -109 q 230 -118 222 -122 l 182 -146 q 145 -89 119 -32 q 92 24 76 81 q 60 138 52 196 q 45 254 45 314 q 45 375 52 433 q 60 491 76 548 q 92 604 119 661 q 145 718 182 776 l 222 751 q 230 746 234 738 q 238 730 230 714 q 177 624 150 522 q 122 422 122 314 z"},"C":{"x_min":0,"x_max":668,"ha":668,"o":"m 594 148 q 602 148 608 142 l 647 100 q 603 49 540 20 q 478 -8 388 -8 q 312 -8 248 19 q 186 46 141 94 q 96 142 72 210 q 48 277 48 358 q 48 439 73 506 q 98 574 145 622 q 191 671 256 698 q 320 724 398 724 q 474 724 533 700 q 592 676 636 634 l 604 589 q 601 584 596 581 q 592 578 584 578 q 574 578 562 587 q 548 597 528 609 q 506 621 475 631 q 444 640 398 640 q 342 640 296 621 q 250 602 217 566 q 184 529 165 476 q 146 424 146 358 q 146 291 166 238 q 185 186 218 150 q 252 114 297 94 q 342 76 394 76 q 426 76 452 79 q 478 83 500 91 q 522 99 540 111 q 559 124 578 140 q 586 148 594 148 z"},"W":{"x_min":0,"x_max":1036,"ha":1036,"o":"m 16 716 l 96 716 q 109 716 118 710 q 126 704 129 694 l 277 196 q 280 182 284 166 q 287 151 290 134 q 294 151 297 167 q 301 182 306 196 l 474 694 q 477 702 486 709 q 494 716 507 716 l 535 716 q 548 716 556 710 q 564 704 568 694 l 736 196 q 740 182 744 168 q 748 152 751 136 q 754 152 757 168 q 760 182 764 196 l 912 694 q 914 702 923 710 q 932 716 944 716 l 1020 716 l 796 0 l 710 0 l 528 546 q 522 562 518 582 q 516 572 513 563 q 511 554 508 546 l 326 0 l 239 0 z"},"A":{"x_min":0,"x_max":677,"ha":677,"o":"m 674 0 l 599 0 q 586 0 578 6 q 570 13 566 23 l 499 196 l 178 196 l 110 23 q 108 14 99 7 q 90 0 78 0 l 3 0 l 290 716 l 388 716 z m 204 266 l 472 266 l 360 558 q 354 570 349 588 q 344 604 338 624 q 333 604 328 587 q 322 570 317 557 z"},"f":{"x_min":0,"x_max":350,"ha":350,"o":"m 104 0 l 104 430 l 48 437 q 37 440 30 445 q 24 450 24 460 l 24 496 l 104 496 l 104 546 q 104 589 116 623 q 128 656 151 680 q 174 703 206 715 q 238 727 278 727 q 312 727 340 717 l 338 672 q 337 660 325 660 q 312 658 292 658 q 269 658 250 652 q 232 646 218 633 q 204 620 197 598 q 190 576 190 543 l 190 496 l 336 496 l 336 432 l 193 432 l 193 0 z"},"Q":{"x_min":0,"x_max":800,"ha":800,"o":"m 754 358 q 754 308 744 262 q 734 216 714 177 q 694 138 666 106 q 638 74 604 50 l 787 -148 l 707 -148 q 689 -148 675 -143 q 661 -138 650 -126 l 524 12 q 496 2 465 -2 q 434 -8 400 -8 q 322 -8 256 19 q 192 46 145 94 q 98 143 73 210 q 48 278 48 358 q 48 438 73 506 q 98 573 145 622 q 192 670 256 698 q 322 724 400 724 q 480 724 545 698 q 610 670 656 622 q 703 573 728 506 q 754 438 754 358 z m 654 358 q 654 424 636 476 q 618 529 586 565 q 552 602 506 621 q 458 640 400 640 q 343 640 296 621 q 249 602 216 565 q 182 529 164 476 q 146 424 146 358 q 146 292 164 240 q 182 188 216 151 q 249 115 296 96 q 343 76 400 76 q 458 76 506 96 q 552 115 586 151 q 618 188 636 240 q 654 292 654 358 z"},"w":{"x_min":0,"x_max":786,"ha":786,"o":"m 16 506 l 86 506 q 97 506 104 501 q 112 496 114 488 l 211 162 q 215 144 218 128 q 222 111 224 94 q 228 111 234 128 q 238 144 244 162 l 351 490 q 354 498 360 502 q 366 508 375 508 l 414 508 q 424 508 430 502 q 437 498 440 490 l 544 162 q 549 144 554 128 q 558 110 562 94 q 565 110 569 127 q 572 144 577 162 l 676 488 q 678 496 686 501 q 692 506 702 506 l 769 506 l 605 0 l 534 0 q 522 0 516 17 l 404 360 q 400 372 398 384 q 396 396 393 407 q 390 396 388 384 q 385 372 382 360 l 268 17 q 263 0 248 0 l 180 0 z"},"-":{"x_min":0,"x_max":372,"ha":372,"o":"m 62 338 l 310 338 l 310 262 l 62 262 z"},"E":{"x_min":0,"x_max":578,"ha":578,"o":"m 533 716 l 533 638 l 188 638 l 188 400 l 468 400 l 468 324 l 188 324 l 188 79 l 534 79 l 533 0 l 92 0 l 92 716 z"},"s":{"x_min":0,"x_max":433,"ha":433,"o":"m 366 423 q 360 412 347 412 q 340 412 330 418 q 320 423 307 430 q 293 436 274 442 q 255 448 229 448 q 206 448 188 442 q 170 436 158 426 q 145 416 138 403 q 132 390 132 374 q 132 355 143 342 q 154 329 172 320 q 191 310 214 303 q 238 296 263 287 q 288 279 311 269 q 334 259 353 244 q 372 229 383 207 q 394 186 394 155 q 394 120 382 90 q 369 60 344 39 q 320 17 284 4 q 249 -8 202 -8 q 150 -8 106 9 q 64 26 34 54 l 54 88 q 58 94 64 98 q 70 101 78 101 q 87 101 97 94 q 107 87 121 78 q 136 70 156 63 q 176 56 207 56 q 233 56 252 63 q 272 70 285 81 q 298 92 304 108 q 310 122 310 140 q 310 160 299 174 q 288 188 270 198 q 251 208 227 215 q 204 222 179 230 q 154 238 130 248 q 106 258 88 274 q 70 290 58 312 q 47 335 47 368 q 47 396 59 423 q 71 450 94 470 q 117 490 150 502 q 184 514 227 514 q 277 514 317 499 q 356 483 386 456 z"},">":{"x_min":0,"x_max":580,"ha":580,"o":"m 112 117 l 112 181 q 112 189 116 196 q 120 202 130 207 l 355 320 q 365 326 376 330 q 387 334 400 336 q 387 339 376 343 q 365 346 355 352 l 130 466 q 120 471 116 477 q 112 484 112 492 l 112 556 l 499 355 l 499 318 z"},"l":{"x_min":0,"x_max":236,"ha":236,"o":"m 162 736 l 162 0 l 74 0 l 74 736 z"},"8":{"x_min":0,"x_max":580,"ha":580,"o":"m 290 -8 q 236 -8 192 6 q 148 20 116 47 q 84 74 66 111 q 48 149 48 196 q 48 265 84 310 q 120 354 188 374 q 131 394 102 436 q 74 478 74 536 q 74 576 89 610 q 104 644 133 670 q 162 696 201 710 q 241 724 290 724 q 338 724 378 710 q 418 696 447 670 q 476 644 491 610 q 506 576 506 536 q 506 478 478 436 q 448 394 392 374 q 460 354 496 310 q 532 265 532 196 q 532 149 514 111 q 496 74 464 47 q 432 20 388 6 q 344 -8 290 -8 z m 290 63 q 325 63 353 73 q 380 82 400 100 q 419 118 429 143 q 440 168 440 198 q 440 234 427 261 q 415 287 394 304 q 374 320 346 328 q 320 336 290 336 q 260 336 234 328 q 206 320 186 304 q 165 287 153 261 q 140 234 140 198 q 140 168 151 143 q 161 118 180 100 q 200 82 227 73 q 255 63 290 63 z m 290 407 q 325 407 350 418 q 374 428 390 446 q 406 464 412 487 q 420 510 420 534 q 420 560 411 582 q 403 604 387 620 q 370 636 346 646 q 322 656 290 656 q 258 656 234 646 q 210 636 193 620 q 177 604 169 582 q 160 560 160 534 q 160 510 168 487 q 174 464 190 446 q 206 428 230 418 q 255 407 290 407 z"},"\\":{"x_min":0,"x_max":452,"ha":452,"o":"m 34 736 l 72 736 q 88 736 100 728 q 112 720 118 704 l 418 -45 l 381 -45 q 366 -45 352 -36 q 338 -28 332 -10 z"},"e":{"x_min":0,"x_max":528,"ha":528,"o":"m 278 514 q 324 514 362 499 q 401 484 429 455 q 458 426 474 384 q 490 342 490 288 q 490 267 485 260 q 480 253 468 253 l 130 253 q 130 205 142 170 q 154 134 176 110 q 196 86 226 75 q 254 63 290 63 q 324 63 348 71 q 372 78 390 88 q 408 96 419 104 q 431 112 440 112 q 450 112 456 104 l 482 71 q 465 51 442 36 q 419 22 393 12 q 366 2 338 -2 q 310 -7 283 -7 q 230 -7 186 11 q 142 28 110 63 q 78 97 60 148 q 42 198 42 264 q 42 316 58 362 q 74 408 104 442 q 135 476 179 495 q 223 514 278 514 z m 280 449 q 216 449 178 412 q 142 374 132 308 l 410 308 q 410 340 401 365 q 392 391 375 410 q 358 428 334 439 q 310 449 280 449 z"},"b":{"x_min":0,"x_max":560,"ha":560,"o":"m 70 0 l 70 736 l 160 736 l 160 433 q 192 470 232 492 q 272 514 325 514 q 370 514 405 498 q 441 480 466 448 q 491 416 504 370 q 518 324 518 266 q 518 205 502 154 q 488 104 459 68 q 431 32 390 13 q 350 -7 300 -7 q 250 -7 215 12 q 181 30 156 65 l 151 19 q 147 0 128 0 z m 296 444 q 252 444 220 424 q 187 404 160 367 l 160 122 q 184 89 214 76 q 243 62 278 62 q 350 62 388 112 q 426 163 426 263 q 426 356 392 400 q 358 444 296 444 z"},"%":{"x_min":0,"x_max":802,"ha":802,"o":"m 361 544 q 361 502 348 468 q 335 435 313 412 q 292 390 263 378 q 234 366 202 366 q 168 366 140 378 q 110 390 89 412 q 68 435 56 468 q 44 502 44 544 q 44 586 56 620 q 68 654 89 676 q 110 700 140 712 q 168 724 202 724 q 236 724 265 712 q 294 700 316 676 q 337 654 349 620 q 361 586 361 544 z m 292 544 q 292 576 285 600 q 278 622 266 637 q 254 652 237 658 q 220 665 202 665 q 184 665 168 658 q 152 652 140 637 q 128 622 120 600 q 114 576 114 544 q 114 511 120 488 q 128 466 140 451 q 152 437 168 431 q 184 424 202 424 q 220 424 237 431 q 254 437 266 451 q 278 466 285 488 q 292 511 292 544 z m 614 702 q 620 708 626 712 q 633 716 644 716 l 709 716 l 185 14 q 180 8 174 4 q 166 0 156 0 l 91 0 z m 758 169 q 758 127 744 94 q 732 61 710 38 q 688 16 659 4 q 630 -8 598 -8 q 564 -8 536 4 q 507 16 486 38 q 464 61 452 94 q 440 127 440 169 q 440 212 452 246 q 464 280 486 302 q 507 326 536 338 q 564 350 598 350 q 632 350 661 338 q 690 326 712 302 q 733 280 745 246 q 758 212 758 169 z m 688 169 q 688 202 682 225 q 674 248 662 263 q 650 278 634 284 q 617 290 598 290 q 580 290 564 284 q 548 278 536 263 q 524 248 517 225 q 510 202 510 169 q 510 136 517 114 q 524 92 536 77 q 548 63 564 57 q 580 50 598 50 q 617 50 634 57 q 650 63 662 77 q 674 92 682 114 q 688 136 688 169 z"},"m":{"x_min":0,"x_max":822,"ha":822,"o":"m 70 0 l 70 506 l 124 506 q 143 506 148 488 l 154 436 q 182 470 217 492 q 252 514 298 514 q 349 514 381 486 q 412 458 426 409 q 438 436 455 456 q 472 476 494 490 q 515 502 539 508 q 564 514 588 514 q 628 514 660 502 q 691 489 713 464 q 734 440 746 404 q 758 368 758 322 l 758 0 l 668 0 l 668 322 q 668 382 642 413 q 616 444 567 444 q 545 444 525 436 q 506 428 490 413 q 476 398 467 375 q 458 352 458 322 l 458 0 l 368 0 l 368 322 q 368 384 344 414 q 320 444 272 444 q 240 444 212 426 q 184 408 160 378 l 160 0 z"},"#":{"x_min":0,"x_max":580,"ha":580,"o":"m 396 212 l 354 0 l 314 0 q 308 0 302 3 q 296 6 293 11 q 289 16 288 23 q 286 30 288 38 l 323 212 l 200 212 l 164 34 q 161 16 150 8 q 138 0 124 0 l 84 0 l 126 212 l 53 212 q 39 212 33 220 q 26 228 30 248 l 34 277 l 136 277 l 168 440 l 52 440 l 58 477 q 61 492 70 498 q 80 506 98 506 l 178 506 l 214 684 q 216 700 227 708 q 238 716 253 716 l 293 716 l 251 506 l 374 506 l 416 716 l 456 716 q 470 716 479 707 q 487 698 484 683 l 448 506 l 554 506 l 548 468 q 545 454 536 447 q 526 440 508 440 l 438 440 l 406 277 l 496 277 q 510 277 516 269 q 522 260 520 240 l 515 212 z m 209 277 l 332 277 l 365 440 l 242 440 z"},",":{"x_min":0,"x_max":227,"ha":227,"o":"m 54 62 q 54 85 70 102 q 86 118 113 118 q 128 118 140 112 q 151 107 159 97 q 166 88 170 75 q 174 62 174 47 q 174 24 168 0 q 162 -24 150 -48 q 138 -72 120 -94 q 102 -116 80 -136 l 65 -121 q 61 -118 60 -114 q 58 -112 58 -107 q 58 -104 60 -100 q 62 -96 66 -94 q 70 -88 78 -79 q 86 -70 94 -58 q 102 -46 109 -31 q 116 -16 118 0 l 112 0 q 86 0 70 17 q 54 34 54 62 z"},"n":{"x_min":0,"x_max":558,"ha":558,"o":"m 70 0 l 70 506 l 124 506 q 143 506 148 488 l 154 433 q 188 470 228 492 q 270 514 323 514 q 364 514 396 501 q 428 487 449 462 q 470 436 482 401 q 492 366 492 322 l 492 0 l 403 0 l 403 322 q 403 380 377 412 q 350 444 297 444 q 257 444 223 424 q 188 406 160 373 l 160 0 z"},"h":{"x_min":0,"x_max":558,"ha":558,"o":"m 70 0 l 70 736 l 160 736 l 160 438 q 192 473 232 494 q 272 514 323 514 q 364 514 396 501 q 428 487 449 462 q 470 436 482 401 q 492 366 492 322 l 492 0 l 403 0 l 403 322 q 403 380 377 412 q 350 444 297 444 q 257 444 223 424 q 188 406 160 373 l 160 0 z"},"z":{"x_min":0,"x_max":452,"ha":452,"o":"m 420 468 q 420 459 417 450 q 414 441 408 434 l 134 70 l 410 70 l 410 0 l 29 0 l 29 37 q 29 44 32 52 q 35 61 41 69 l 317 436 l 44 436 l 44 506 l 420 506 z"},"B":{"x_min":0,"x_max":646,"ha":646,"o":"m 92 0 l 92 716 l 320 716 q 386 716 434 704 q 482 690 512 666 q 543 642 558 608 q 572 573 572 530 q 572 503 564 478 q 556 454 539 433 q 522 412 497 396 q 472 379 438 368 q 516 353 556 312 q 596 271 596 204 q 596 158 580 121 q 563 84 531 56 q 498 30 452 15 q 404 0 344 0 z m 188 326 l 188 77 l 343 77 q 384 77 414 86 q 444 96 464 113 q 483 130 492 154 q 501 178 501 206 q 501 262 462 294 q 422 326 343 326 z m 188 396 l 316 396 q 357 396 387 404 q 418 414 437 430 q 457 446 466 468 q 476 491 476 518 q 476 582 438 611 q 400 640 320 640 l 188 640 z"},"K":{"x_min":0,"x_max":662,"ha":662,"o":"m 188 402 l 224 402 q 244 402 255 407 q 266 412 276 424 l 514 694 q 524 706 536 712 q 546 716 562 716 l 644 716 l 372 408 q 362 396 352 388 q 343 380 332 376 q 346 371 357 362 q 368 354 378 340 l 664 0 l 580 0 q 570 0 563 1 q 556 2 552 5 q 546 8 543 12 q 539 16 536 20 l 288 305 q 278 318 267 323 q 256 328 232 328 l 188 328 l 188 0 l 92 0 l 92 716 l 188 716 z"},"R":{"x_min":0,"x_max":626,"ha":626,"o":"m 188 299 l 188 0 l 92 0 l 92 716 l 294 716 q 362 716 412 703 q 461 689 493 663 q 526 637 541 600 q 556 564 556 518 q 556 480 544 447 q 532 414 510 388 q 487 362 454 343 q 422 324 380 315 q 399 303 412 284 l 621 0 l 535 0 q 508 0 496 20 l 310 276 q 302 288 292 294 q 282 299 262 299 z m 188 370 l 290 370 q 332 370 364 380 q 396 390 418 409 q 440 428 451 454 q 462 480 462 511 q 462 575 420 608 q 378 640 294 640 l 188 640 z"},"T":{"x_min":0,"x_max":590,"ha":590,"o":"m 576 716 l 576 635 l 344 635 l 344 0 l 248 0 l 248 635 l 15 635 l 15 716 z"},"P":{"x_min":0,"x_max":600,"ha":600,"o":"m 188 268 l 188 0 l 92 0 l 92 716 l 303 716 q 371 716 421 701 q 472 685 504 656 q 538 627 554 586 q 570 545 570 494 q 570 444 552 403 q 535 362 501 332 q 468 302 418 285 q 368 268 303 268 z m 188 345 l 303 345 q 344 345 376 356 q 408 367 430 387 q 452 406 462 434 q 474 462 474 494 q 474 563 431 602 q 389 640 303 640 l 188 640 z"},"|":{"x_min":0,"x_max":250,"ha":250,"o":"m 90 766 l 160 766 l 160 -174 l 90 -174 z"},"t":{"x_min":0,"x_max":358,"ha":358,"o":"m 226 -8 q 166 -8 134 26 q 102 59 102 122 l 102 432 l 40 432 q 32 432 27 437 q 22 442 22 452 l 22 487 l 104 498 l 125 654 q 126 662 132 666 q 137 671 146 671 l 190 671 l 190 496 l 337 496 l 337 432 l 190 432 l 190 128 q 190 96 206 80 q 222 65 246 65 q 260 65 270 69 q 280 72 288 77 q 296 82 301 85 q 306 89 310 89 q 317 89 322 80 l 348 38 q 326 16 293 4 q 260 -8 226 -8 z"},"M":{"x_min":0,"x_max":928,"ha":928,"o":"m 444 259 q 450 247 456 234 q 461 220 466 208 q 472 221 477 234 q 482 248 489 260 l 732 700 q 738 712 745 714 q 752 716 766 716 l 837 716 l 837 0 l 752 0 l 752 526 q 752 537 752 549 q 753 561 754 574 l 508 126 q 497 103 474 103 l 460 103 q 436 103 424 126 l 174 575 q 175 562 176 550 q 176 537 176 526 l 176 0 l 92 0 l 92 716 l 163 716 q 176 716 183 714 q 190 712 196 700 l 444 259 z"},"g":{"x_min":0,"x_max":520,"ha":520,"o":"m 247 515 q 280 515 308 508 q 337 500 360 486 l 498 486 l 498 454 q 498 437 477 432 l 420 424 q 436 392 436 352 q 436 315 422 285 q 408 254 383 233 q 358 212 323 200 q 288 188 247 188 q 211 188 180 197 q 164 187 155 176 q 147 164 147 153 q 147 135 162 126 q 176 116 200 112 q 224 108 255 108 q 286 106 318 104 q 350 102 381 96 q 412 91 436 78 q 460 66 475 44 q 490 22 490 -13 q 490 -46 473 -76 q 457 -106 426 -130 q 396 -154 352 -168 q 308 -182 252 -182 q 196 -182 155 -172 q 114 -160 86 -142 q 58 -124 45 -99 q 31 -75 31 -48 q 31 -11 54 15 q 78 41 118 56 q 96 66 83 83 q 70 100 70 128 q 70 140 74 151 q 78 163 86 174 q 94 186 106 196 q 118 207 134 215 q 97 236 76 271 q 55 306 55 352 q 55 389 69 419 q 84 450 109 471 q 134 492 170 504 q 205 515 247 515 z m 408 -28 q 408 -9 397 2 q 386 14 369 20 q 351 27 328 30 q 304 32 278 34 q 252 36 224 37 q 198 38 172 42 q 144 29 127 10 q 109 -10 109 -37 q 109 -54 118 -69 q 126 -84 144 -94 q 162 -105 190 -111 q 217 -118 254 -118 q 290 -118 318 -111 q 347 -104 367 -92 q 386 -80 397 -64 q 408 -48 408 -28 z m 247 248 q 274 248 294 255 q 315 262 329 276 q 343 290 350 308 q 357 327 357 350 q 357 396 329 424 q 300 451 247 451 q 193 451 165 424 q 136 396 136 350 q 136 327 144 308 q 151 290 165 276 q 179 262 200 255 q 220 248 247 248 z"},"j":{"x_min":0,"x_max":240,"ha":240,"o":"m 164 506 l 164 -38 q 164 -68 156 -94 q 148 -120 131 -140 q 114 -160 86 -171 q 59 -182 21 -182 q 5 -182 -8 -180 q -22 -177 -36 -172 l -32 -124 q -31 -120 -29 -117 q -26 -115 -22 -114 q -18 -114 -12 -114 q -6 -114 4 -114 q 42 -114 59 -96 q 76 -78 76 -38 l 76 506 z m 183 666 q 183 652 178 641 q 172 630 164 621 q 155 612 144 608 q 132 602 119 602 q 106 602 95 608 q 84 612 75 621 q 66 630 62 641 q 56 652 56 666 q 56 678 62 690 q 66 702 75 711 q 84 720 95 724 q 106 730 119 730 q 132 730 144 724 q 155 720 164 711 q 172 702 178 690 q 183 678 183 666 z"},"i":{"x_min":0,"x_max":240,"ha":240,"o":"m 164 506 l 164 0 l 76 0 l 76 506 z m 184 666 q 184 652 178 641 q 173 630 164 621 q 156 612 144 608 q 132 602 119 602 q 106 602 95 608 q 84 612 75 621 q 66 630 62 641 q 56 652 56 666 q 56 678 62 690 q 66 702 75 711 q 84 720 95 724 q 106 730 119 730 q 132 730 144 724 q 156 720 164 711 q 173 702 178 690 q 184 678 184 666 z"},"y":{"x_min":0,"x_max":516,"ha":516,"o":"m 225 -150 q 220 -160 214 -166 q 207 -172 193 -172 l 127 -172 l 220 30 l 10 506 l 88 506 q 99 506 106 501 q 112 495 115 488 l 250 169 q 254 158 258 147 q 262 136 264 124 q 270 147 279 170 l 410 488 q 414 496 421 501 q 428 506 437 506 l 508 506 z"},"@":{"x_min":0,"x_max":836,"ha":836,"o":"m 592 93 q 554 93 530 112 q 505 130 498 169 q 469 129 435 112 q 401 94 362 94 q 332 94 310 104 q 288 114 274 133 q 259 151 252 176 q 244 201 244 230 q 244 272 261 316 q 277 359 309 394 q 341 428 388 450 q 436 472 498 472 q 532 472 558 467 q 583 462 606 452 l 558 272 q 548 234 549 210 q 550 186 557 172 q 564 159 577 154 q 590 150 606 150 q 630 150 652 164 q 674 178 691 203 q 708 228 717 264 q 727 300 727 344 q 727 412 705 464 q 683 516 644 551 q 606 586 553 603 q 500 620 439 620 q 372 620 314 595 q 255 570 212 524 q 168 480 143 418 q 118 356 118 284 q 118 199 144 135 q 171 70 217 27 q 264 -16 326 -38 q 388 -60 460 -60 q 536 -60 594 -44 q 652 -28 695 -2 q 705 4 712 2 q 720 0 724 -10 l 736 -42 q 682 -78 614 -99 q 546 -120 460 -120 q 373 -120 298 -92 q 224 -64 169 -13 q 114 39 83 114 q 52 189 52 284 q 52 338 66 389 q 80 440 104 483 q 130 527 164 563 q 200 600 242 625 q 286 651 335 665 q 385 680 439 680 q 485 680 529 670 q 573 660 612 640 q 652 620 684 592 q 717 563 741 526 q 765 488 778 443 q 792 397 792 344 q 792 290 776 244 q 761 198 734 164 q 708 131 671 112 q 634 93 592 93 z m 380 153 q 395 153 411 158 q 426 163 441 176 q 456 188 468 210 q 481 231 490 264 l 528 411 q 508 416 484 416 q 447 416 416 400 q 384 384 362 358 q 340 333 327 300 q 314 267 314 232 q 314 196 330 175 q 347 153 380 153 z"},".":{"x_min":0,"x_max":236,"ha":236,"o":"m 56 55 q 56 68 60 80 q 65 91 73 100 q 82 108 93 113 q 104 118 118 118 q 130 118 142 113 q 154 108 162 100 q 170 91 176 80 q 180 68 180 55 q 180 42 176 30 q 170 19 162 10 q 154 2 142 -3 q 130 -8 118 -8 q 104 -8 93 -3 q 82 2 73 10 q 65 19 60 30 q 56 42 56 55 z"},"p":{"x_min":0,"x_max":560,"ha":560,"o":"m 70 -172 l 70 506 l 124 506 q 143 506 148 488 l 155 428 q 188 468 230 492 q 272 516 326 516 q 370 516 405 499 q 440 482 466 449 q 490 416 504 368 q 518 320 518 256 q 518 200 502 152 q 488 104 459 69 q 431 34 390 13 q 350 -7 298 -7 q 252 -7 219 8 q 186 24 160 52 l 160 -172 z m 296 444 q 253 444 220 424 q 188 404 160 367 l 160 122 q 184 89 213 76 q 242 62 278 62 q 350 62 388 112 q 426 163 426 256 q 426 306 417 342 q 408 377 392 400 q 375 422 351 433 q 327 444 296 444 z"},"X":{"x_min":0,"x_max":649,"ha":649,"o":"m 256 368 l 20 716 l 116 716 q 127 716 132 713 q 137 710 141 703 l 328 416 q 332 426 338 439 l 515 701 q 519 708 524 712 q 530 716 538 716 l 630 716 l 392 372 l 638 0 l 542 0 q 531 0 525 6 q 518 12 514 18 l 322 319 q 319 308 314 299 l 126 18 q 122 12 116 6 q 110 0 100 0 l 10 0 z"},"*":{"x_min":0,"x_max":425,"ha":425,"o":"m 190 432 l 190 530 q 190 540 192 548 q 193 556 196 564 q 186 552 170 542 l 84 492 l 62 530 l 148 580 q 166 590 184 592 q 174 593 166 596 q 157 598 148 604 l 62 655 l 84 692 l 170 642 q 179 637 186 631 q 193 625 198 616 q 194 626 192 635 q 190 644 190 654 l 190 753 l 234 753 l 234 654 q 234 634 228 618 q 233 626 240 632 q 246 637 255 642 l 341 692 l 363 654 l 277 604 q 268 599 260 596 q 252 593 243 592 q 252 591 260 588 q 268 586 277 580 l 364 530 l 342 492 l 255 542 q 246 548 239 553 q 232 558 226 566 q 234 550 234 530 l 234 432 z"},"Y":{"x_min":0,"x_max":624,"ha":624,"o":"m 360 286 l 360 0 l 264 0 l 264 286 l 1 716 l 86 716 q 99 716 106 710 q 114 704 120 694 l 284 416 q 292 398 300 383 q 307 368 312 352 q 318 368 325 383 q 332 398 341 416 l 504 694 q 509 702 517 710 q 525 716 538 716 l 623 716 z"},"c":{"x_min":0,"x_max":478,"ha":478,"o":"m 423 416 q 419 411 415 408 q 411 405 404 405 q 396 405 388 411 q 378 418 365 425 q 352 432 333 439 q 314 445 286 445 q 248 445 220 432 q 191 418 172 394 q 152 368 143 333 q 133 298 133 254 q 133 208 144 172 q 154 136 173 112 q 192 88 220 75 q 247 62 281 62 q 314 62 334 70 q 356 78 369 87 q 383 96 392 104 q 402 112 410 112 q 422 112 428 104 l 452 71 q 436 50 415 36 q 394 22 370 12 q 346 2 319 -2 q 292 -7 265 -7 q 218 -7 177 10 q 136 28 106 61 q 76 94 59 143 q 42 192 42 254 q 42 310 58 358 q 74 406 104 441 q 134 476 178 495 q 222 514 280 514 q 334 514 374 497 q 415 480 446 448 z"},"!":{"x_min":0,"x_max":269,"ha":269,"o":"m 178 716 l 178 430 q 178 408 176 386 q 176 365 174 343 q 172 322 170 299 q 168 276 165 250 l 105 250 q 102 276 100 299 q 98 322 96 343 q 94 365 94 386 q 92 408 92 430 l 92 716 z m 71 55 q 71 68 76 80 q 80 91 89 100 q 98 108 109 113 q 120 118 134 118 q 146 118 158 113 q 169 108 178 100 q 186 91 191 80 q 196 68 196 55 q 196 42 191 30 q 186 19 178 10 q 169 2 158 -3 q 146 -8 134 -8 q 120 -8 109 -3 q 98 2 89 10 q 80 19 76 30 q 71 42 71 55 z"},"/":{"x_min":0,"x_max":452,"ha":452,"o":"m 120 -10 q 113 -28 99 -36 q 86 -45 71 -45 l 34 -45 l 334 704 q 340 720 352 728 q 364 736 380 736 l 418 736 z"},"[":{"x_min":0,"x_max":306,"ha":306,"o":"m 91 -144 l 91 766 l 275 766 l 275 732 q 275 722 268 715 q 262 708 250 708 l 166 708 l 166 -86 l 250 -86 q 262 -86 268 -92 q 275 -100 275 -110 l 275 -144 z"},"6":{"x_min":0,"x_max":580,"ha":580,"o":"m 237 448 q 227 436 218 424 q 210 413 202 402 q 227 420 258 429 q 288 439 324 439 q 368 439 406 425 q 445 410 474 383 q 502 356 520 316 q 536 276 536 226 q 536 176 518 134 q 500 91 468 60 q 436 28 391 10 q 346 -8 291 -8 q 237 -8 193 9 q 149 26 118 58 q 88 90 71 135 q 54 180 54 236 q 54 284 75 337 q 96 390 141 450 l 323 695 q 330 704 342 710 q 354 716 370 716 l 450 716 z m 140 221 q 140 186 150 158 q 160 130 179 109 q 198 88 226 77 q 254 66 289 66 q 325 66 354 78 q 384 89 404 110 q 425 130 436 158 q 448 186 448 219 q 448 254 436 282 q 426 310 405 330 q 385 350 357 360 q 329 371 296 371 q 260 371 230 359 q 202 346 181 326 q 161 305 150 278 q 140 250 140 221 z"},"r":{"x_min":0,"x_max":364,"ha":364,"o":"m 70 0 l 70 506 l 122 506 q 136 506 142 501 q 147 496 149 482 l 154 405 q 178 457 214 486 q 249 516 300 516 q 316 516 330 512 q 345 508 356 501 l 350 434 q 347 422 335 422 q 328 422 314 425 q 301 428 284 428 q 260 428 241 421 q 222 414 207 400 q 192 386 181 366 q 170 346 160 320 l 160 0 z"},"2":{"x_min":0,"x_max":580,"ha":580,"o":"m 296 724 q 341 724 380 711 q 420 698 449 672 q 478 646 494 609 q 511 572 511 525 q 511 485 499 451 q 487 416 466 386 q 446 354 419 325 q 392 296 362 266 l 174 72 q 194 78 214 81 q 234 84 254 84 l 494 84 q 508 84 516 76 q 525 68 525 54 l 525 0 l 47 0 l 47 30 q 47 40 51 50 q 55 60 64 68 l 293 299 q 322 328 345 355 q 368 382 385 408 q 402 436 410 463 q 420 491 420 522 q 420 554 410 578 q 400 602 382 617 q 365 632 342 640 q 318 648 291 648 q 264 648 240 640 q 218 632 200 618 q 182 604 170 584 q 158 564 153 541 q 147 524 137 518 q 126 512 108 514 l 62 522 q 68 572 89 609 q 109 647 140 672 q 170 698 210 711 q 250 724 296 724 z"},"{":{"x_min":0,"x_max":301,"ha":301,"o":"m 102 212 q 102 244 84 264 q 67 284 34 284 l 34 338 q 67 338 84 358 q 102 378 102 410 q 102 435 98 460 q 94 484 90 508 q 85 533 81 558 q 77 583 77 609 q 77 644 87 672 q 98 702 118 722 q 139 744 170 755 q 200 766 241 766 l 268 766 l 268 727 q 268 717 261 712 q 254 708 248 708 l 238 708 q 199 708 177 683 q 155 658 155 614 q 155 586 158 560 q 162 534 166 510 q 171 485 174 460 q 178 436 178 411 q 178 392 172 376 q 167 360 157 347 q 146 334 133 325 q 119 316 102 311 q 119 306 133 297 q 146 288 157 275 q 167 262 172 246 q 178 230 178 212 q 178 186 174 162 q 171 138 166 113 q 162 88 158 62 q 155 36 155 8 q 155 -36 177 -60 q 199 -86 238 -86 l 248 -86 q 254 -86 261 -90 q 268 -94 268 -104 l 268 -144 l 241 -144 q 200 -144 170 -133 q 139 -121 118 -100 q 98 -79 87 -50 q 77 -21 77 14 q 77 40 81 64 q 85 89 90 114 q 94 138 98 163 q 102 188 102 212 z"},"9":{"x_min":0,"x_max":580,"ha":580,"o":"m 350 286 q 360 300 370 313 q 380 326 388 339 q 360 317 326 306 q 292 294 253 294 q 212 294 176 308 q 140 321 112 347 q 85 374 69 412 q 52 450 52 500 q 52 546 70 588 q 88 628 119 659 q 150 690 194 707 q 238 724 290 724 q 341 724 383 708 q 425 690 455 660 q 485 630 501 587 q 518 544 518 493 q 518 462 512 434 q 506 406 495 380 q 484 353 469 327 q 454 300 434 273 l 260 21 q 253 12 241 6 q 229 0 214 0 l 132 0 z m 432 504 q 432 537 421 564 q 410 592 392 610 q 372 630 346 640 q 320 650 288 650 q 256 650 228 639 q 202 628 182 610 q 162 590 152 564 q 142 538 142 506 q 142 472 151 445 q 161 418 179 400 q 198 382 224 372 q 250 362 282 362 q 318 362 346 374 q 374 386 393 406 q 412 425 422 450 q 432 476 432 504 z"}," ":{"x_min":0,"x_max":256,"ha":256,"o":""},"I":{"x_min":0,"x_max":280,"ha":280,"o":"m 188 0 l 92 0 l 92 716 l 188 716 z"},"H":{"x_min":0,"x_max":764,"ha":764,"o":"m 672 0 l 575 0 l 575 326 l 188 326 l 188 0 l 92 0 l 92 716 l 188 716 l 188 397 l 575 397 l 575 716 l 672 716 z"},"4":{"x_min":0,"x_max":580,"ha":580,"o":"m 443 258 l 552 258 l 552 208 q 552 200 547 194 q 542 188 532 188 l 443 188 l 443 0 l 365 0 l 365 188 l 47 188 q 37 188 30 194 q 22 200 20 208 l 12 254 l 360 716 l 443 716 z m 365 554 q 365 567 366 582 q 366 598 369 614 l 108 258 l 365 258 z"},"~":{"x_min":0,"x_max":580,"ha":580,"o":"m 382 306 q 414 306 432 328 q 450 349 451 384 l 523 384 q 523 350 514 322 q 504 294 487 274 q 470 254 444 244 q 419 232 387 232 q 361 232 336 240 q 310 248 286 258 q 262 268 241 276 q 220 284 202 284 q 169 284 151 264 q 132 242 132 207 l 60 207 q 60 240 69 268 q 78 296 96 316 q 113 336 138 348 q 164 359 196 359 q 222 359 248 351 q 273 342 297 333 q 320 323 342 315 q 364 306 382 306 z"},"D":{"x_min":0,"x_max":760,"ha":760,"o":"m 712 358 q 712 278 687 212 q 662 146 615 98 q 568 52 503 26 q 438 0 359 0 l 92 0 l 92 716 l 359 716 q 438 716 503 691 q 568 665 615 618 q 662 570 687 504 q 712 438 712 358 z m 613 358 q 613 424 595 476 q 577 528 544 564 q 511 600 464 619 q 417 638 359 638 l 188 638 l 188 78 l 359 78 q 417 78 464 98 q 511 116 544 152 q 577 188 595 240 q 613 292 613 358 z"},"^":{"x_min":0,"x_max":580,"ha":580,"o":"m 514 348 l 449 348 q 440 348 434 353 q 428 358 424 365 l 310 586 q 296 613 290 635 q 286 624 282 612 q 277 600 272 586 l 160 365 q 157 358 150 353 q 144 348 134 348 l 66 348 l 260 716 l 318 716 z"},"0":{"x_min":0,"x_max":580,"ha":580,"o":"m 550 358 q 550 264 530 195 q 510 126 474 82 q 440 36 392 14 q 344 -8 290 -8 q 234 -8 187 14 q 140 36 105 82 q 70 126 50 195 q 30 264 30 358 q 30 452 50 521 q 70 590 105 635 q 140 680 187 702 q 234 724 290 724 q 344 724 392 702 q 440 680 474 635 q 510 590 530 521 q 550 452 550 358 z m 458 358 q 458 440 444 496 q 430 552 407 586 q 384 620 353 634 q 322 649 290 649 q 256 649 226 634 q 196 620 172 586 q 150 552 136 496 q 122 440 122 358 q 122 276 136 220 q 150 165 172 131 q 196 97 226 82 q 256 68 290 68 q 322 68 353 82 q 384 97 407 131 q 430 165 444 220 q 458 276 458 358 z"},"F":{"x_min":0,"x_max":566,"ha":566,"o":"m 533 716 l 533 638 l 188 638 l 188 387 l 483 387 l 483 308 l 188 308 l 188 0 l 92 0 l 92 716 z"},"`":{"x_min":0,"x_max":400,"ha":400,"o":"m 150 724 q 166 724 174 719 q 182 714 190 702 l 264 582 l 213 582 q 202 582 196 585 q 190 588 182 596 l 66 724 z"},"k":{"x_min":0,"x_max":508,"ha":508,"o":"m 160 736 l 160 303 l 183 303 q 193 303 200 306 q 206 308 214 317 l 374 488 q 381 497 389 502 q 396 506 410 506 l 490 506 l 304 308 q 290 291 274 282 q 284 276 291 268 q 298 260 304 250 l 502 0 l 423 0 q 412 0 403 4 q 395 8 389 18 l 222 225 q 215 236 208 239 q 200 242 186 242 l 160 242 l 160 0 l 70 0 l 70 736 z"},"u":{"x_min":0,"x_max":558,"ha":558,"o":"m 154 506 l 154 184 q 154 126 181 94 q 207 63 261 63 q 300 63 334 82 q 369 100 398 133 l 398 506 l 487 506 l 487 0 l 434 0 q 415 0 410 18 l 403 73 q 370 36 329 14 q 288 -8 235 -8 q 194 -8 162 6 q 130 20 108 44 q 87 70 76 105 q 66 140 66 184 l 66 506 z"},"]":{"x_min":0,"x_max":306,"ha":306,"o":"m 31 -110 q 31 -100 38 -92 q 44 -86 56 -86 l 140 -86 l 140 708 l 56 708 q 44 708 38 715 q 31 722 31 732 l 31 766 l 215 766 l 215 -144 l 31 -144 z"},"U":{"x_min":0,"x_max":736,"ha":736,"o":"m 368 77 q 412 77 448 92 q 482 107 507 134 q 531 161 544 198 q 556 236 556 281 l 556 716 l 653 716 l 653 281 q 653 219 633 166 q 614 113 577 74 q 540 36 487 14 q 434 -8 368 -8 q 302 -8 249 14 q 196 36 159 74 q 122 113 102 166 q 82 219 82 281 l 82 716 l 179 716 l 179 282 q 179 236 192 199 q 204 162 229 134 q 253 108 288 92 q 324 77 368 77 z"},"o":{"x_min":0,"x_max":567,"ha":567,"o":"m 284 514 q 340 514 384 496 q 428 478 460 444 q 492 410 508 361 q 525 313 525 254 q 525 194 508 146 q 492 98 460 64 q 428 30 384 11 q 340 -7 284 -7 q 228 -7 183 11 q 138 30 107 64 q 76 98 59 146 q 42 194 42 254 q 42 313 59 361 q 76 410 107 444 q 138 478 183 496 q 228 514 284 514 z m 284 62 q 359 62 396 113 q 433 163 433 253 q 433 344 396 394 q 359 444 284 444 q 246 444 218 432 q 190 418 171 394 q 152 370 143 334 q 134 298 134 253 q 134 163 171 113 q 208 62 284 62 z"},"N":{"x_min":0,"x_max":764,"ha":764,"o":"m 142 716 q 148 716 152 716 q 157 715 160 713 q 164 712 168 708 q 171 705 175 700 l 590 160 q 588 174 588 186 q 587 198 587 209 l 587 716 l 672 716 l 672 0 l 624 0 q 612 0 604 4 q 596 8 589 18 l 174 557 q 176 544 176 532 q 176 520 176 510 l 176 0 l 92 0 l 92 716 l 142 716 z"},"+":{"x_min":0,"x_max":580,"ha":580,"o":"m 326 583 l 326 370 l 530 370 l 530 302 l 326 302 l 326 87 l 254 87 l 254 302 l 50 302 l 50 370 l 254 370 l 254 583 z"},"G":{"x_min":0,"x_max":730,"ha":730,"o":"m 674 70 q 620 30 558 11 q 497 -8 424 -8 q 338 -8 268 19 q 198 46 149 94 q 100 142 74 210 q 47 277 47 358 q 47 440 73 508 q 98 575 146 623 q 194 672 262 698 q 330 724 414 724 q 456 724 492 718 q 529 712 560 700 q 591 688 618 672 q 644 655 667 634 l 640 590 q 633 580 623 577 q 612 574 600 582 q 588 589 572 599 q 557 609 535 618 q 512 628 482 634 q 452 640 410 640 q 350 640 301 621 q 252 601 218 564 q 183 528 164 475 q 146 423 146 358 q 146 290 165 237 q 184 184 220 147 q 256 110 307 90 q 358 70 422 70 q 446 70 468 74 q 490 76 510 82 q 530 87 548 95 q 567 102 586 112 l 586 270 l 474 270 q 465 270 459 276 q 454 282 454 290 l 454 344 l 674 344 l 674 70 z"},"q":{"x_min":0,"x_max":560,"ha":560,"o":"m 490 506 l 490 -172 l 400 -172 l 400 75 q 368 38 328 16 q 287 -7 234 -7 q 191 -7 156 10 q 120 26 95 59 q 70 92 56 140 q 43 188 43 252 q 43 308 58 356 q 73 404 101 440 q 129 475 170 495 q 210 516 262 516 q 311 516 345 498 q 380 480 406 448 l 412 488 q 418 506 436 506 z m 264 65 q 308 65 340 85 q 373 105 400 142 l 400 386 q 376 418 347 432 q 318 446 282 446 q 211 446 173 396 q 135 345 135 252 q 135 202 144 167 q 152 132 168 109 q 185 86 209 76 q 233 65 264 65 z"},"d":{"x_min":0,"x_max":560,"ha":560,"o":"m 436 0 q 418 0 412 18 l 404 80 q 372 40 330 17 q 288 -7 234 -7 q 191 -7 156 10 q 120 26 95 59 q 70 92 56 140 q 43 188 43 252 q 43 308 58 356 q 73 404 101 440 q 129 475 170 495 q 210 516 262 516 q 308 516 341 500 q 374 484 400 456 l 400 736 l 490 736 l 490 0 z m 264 65 q 308 65 340 85 q 373 105 400 142 l 400 386 q 376 419 346 432 q 318 446 282 446 q 211 446 173 396 q 135 345 135 252 q 135 202 144 167 q 152 132 168 109 q 185 86 209 76 q 233 65 264 65 z"},"1":{"x_min":0,"x_max":580,"ha":580,"o":"m 125 68 l 278 68 l 278 556 q 278 578 280 601 l 152 492 q 146 486 140 485 q 133 484 128 484 q 122 486 117 488 q 112 492 110 495 l 82 534 l 296 718 l 368 718 l 368 68 l 509 68 l 509 0 l 125 0 z"},"5":{"x_min":0,"x_max":580,"ha":580,"o":"m 491 678 q 491 658 479 646 q 468 634 439 634 l 214 634 l 181 446 q 210 452 235 455 q 260 458 284 458 q 340 458 383 442 q 426 425 455 396 q 484 367 498 328 q 513 288 513 242 q 513 184 493 138 q 474 92 439 60 q 404 27 357 10 q 310 -8 256 -8 q 224 -8 195 -2 q 166 4 141 15 q 116 26 94 39 q 72 52 56 68 l 84 106 q 92 118 107 118 q 117 118 130 111 q 142 103 160 94 q 178 84 202 76 q 226 68 260 68 q 298 68 328 80 q 358 92 379 115 q 400 137 412 168 q 424 199 424 238 q 424 271 414 298 q 404 325 384 344 q 364 363 335 374 q 306 384 266 384 q 239 384 210 380 q 180 375 150 365 l 94 382 l 152 716 l 491 716 z"}}}
